<?xml version="1.0" encoding="UTF-8"?>
<!DOCTYPE svg PUBLIC "-//W3C//DTD SVG 1.1//EN" "http://www.w3.org/Graphics/SVG/1.1/DTD/svg11.dtd">
<!-- Creator: CorelDRAW -->
<svg xmlns="http://www.w3.org/2000/svg" xml:space="preserve" width="3.61536in" height="2.0204in" version="1.1" style="shape-rendering:geometricPrecision; text-rendering:geometricPrecision; image-rendering:optimizeQuality; fill-rule:evenodd; clip-rule:evenodd"
viewBox="0 0 2106.81 1177.36"
 xmlns:xlink="http://www.w3.org/1999/xlink"
 xmlns:xodm="http://www.corel.com/coreldraw/odm/2003">
 <defs>
  <style type="text/css">
   <![CDATA[
    .fil1 {fill:#00AFEF}
    .fil0 {fill:#4DC8F4}
   ]]>
  </style>
 </defs>
 <g id="Layer_x0020_1">
  <metadata id="CorelCorpID_0Corel-Layer"/>
  <path class="fil0" d="M1632.35 47.12l427.35 427.35c62.82,62.82 62.82,165.62 0,228.44l-427.35 427.35c-62.82,62.82 -165.61,62.82 -228.44,0l-63.75 -63.75 333.7 -333.7c79.32,-79.32 79.32,-208.92 0,-288.24l-333.7 -333.7 63.75 -63.75c62.82,-62.82 165.61,-62.82 228.44,0z"/>
  <rect class="fil1" transform="matrix(0.653336 0.653338 -0.653338 0.653336 1060.04 -67.1016)" width="1003.74" height="1003.74" rx="174.82" ry="174.82"/>
  <path class="fil0" d="M474.46 47.12l-427.35 427.35c-62.82,62.82 -62.82,165.62 0,228.44l427.35 427.35c62.82,62.82 165.61,62.82 228.44,0l63.75 -63.75 -333.7 -333.7c-79.32,-79.32 -79.32,-208.92 0,-288.24l333.7 -333.7 -63.75 -63.75c-62.82,-62.82 -165.61,-62.82 -228.44,0z"/>
 </g>
</svg>
